<svg id="Layer_1" data-name="Layer 1" xmlns="http://www.w3.org/2000/svg" xmlns:xlink="http://www.w3.org/1999/xlink" viewBox="0 0 2048.69995 1138.43994"><defs><style>.cls-1{fill:none;}.cls-2{clip-path:url(#clip-path);}.cls-3{clip-path:url(#clip-path-2);}.cls-4{fill:#0064dd;}.cls-5{fill:#00b900;}</style><clipPath id="clip-path"><rect class="cls-1" width="2048.69995" height="1138.43994"/></clipPath><clipPath id="clip-path-2"><rect class="cls-1" y="-0.005" width="2048.69995" height="1138.44495"/></clipPath></defs><title>Untitled-1</title><g class="cls-2"><g class="cls-3"><path class="cls-4" d="M401.77319,235.08057a180.05348,180.05348,0,0,1,125.635-50.414c100.579,0,182.124,80.88,182.124,180.679a179.491,179.491,0,0,1-50.619,125.038l-171.379,170.14-79.14-78.509,216.64-215.025-98.929-98.21795-128.9,127.876-79.111-78.525Z"/><path class="cls-5" d="M616.01721,709.20944a184.34372,184.34372,0,0,1-129.133,52.366c-101.364,0-183.535-80.995-183.535-180.942a179.24675,179.24675,0,0,1,54.674-128.86l167.546-166.288,80.647,80.044-216.805,215.104,97.433,96.745,128.03-127.029,80.63,80.022-79.436,78.838Z"/><path class="cls-4" d="M303.34869,939.56764a21.34017,21.34017,0,0,1,.84-4.876l21.865-102.596c.337-2.018,1.515-2.687,3.533-2.687h21.19c2.018,0,2.184,1.006,2.184,1.509a17.38815,17.38815,0,0,1-.503,3.533l-16.989,79.891c-.503,2.184-1.172,4.876-1.172,5.551,0,1.177.331,1.68,1.681,1.68h30.439c1.68,0,2.018,1.006,2.018,1.681a16.76185,16.76185,0,0,1-.675,3.698l-2.521,11.941a3.0558,3.0558,0,0,1-3.361,2.693h-56.174c-1.68,0-2.355-.84-2.355-2.018"/><path class="cls-4" d="M378.1918,909.79724c0-26.066,14.463-56.506,43.221-56.506,10.764,0,14.634,5.042,17.326,5.042,1.344,0,1.847-.675,2.184-2.018s1.012-1.68,2.355-1.68h20.516c1.515,0,2.189.503,2.189,1.68a19.63428,19.63428,0,0,1-.503,3.533l-16.989,79.216c-.337,1.846-1.515,2.521-3.361,2.521h-20.184c-1.012,0-1.515-.337-1.515-1.177l.172-1.681c0-.675-.338-1.012-1.178-1.012-2.527,0-6.059,5.213-17.154,5.213-16.486,0-27.079-11.432-27.079-33.131m49.612,5.722,6.894-32.126a23.42933,23.42933,0,0,0,1.012-6.391c0-4.207-3.699-6.053-8.581-6.053-14.799,0-22.87,20.178-22.87,38.51,0,10.764,4.207,15.812,11.775,15.812,6.391,0,10.255-2.355,11.77-9.752"/><path class="cls-4" d="M506.00867,939.90456a49.032,49.032,0,0,1,1.177-6.053l21.52795-101.419c.509-2.183,1.686-3.024,3.704-3.024h30.605c22.705,0,31.788,7.734,31.788,23.711,0,19.345-11.101,26.913-21.527,29.599-1.51495.509-1.846.841-1.846,1.515,0,.503.33106.84,1.50806,1.178,9.25494,2.858,16.486,9.586,16.486,22.871,0,22.373-16.148,33.303-44.404,33.303h-36.327c-2.355,0-2.692-.84-2.692-1.681m37.001-13.959c14.131,0,19.344-10.426,19.344-21.024,0-8.409-3.87-13.285-12.278-13.285h-6.05395c-1.177,0-1.68.503-1.852,2.018l-5.716,26.741c-.337,1.68-.84,3.361-.84,4.035,0,1.006.668,1.515,2.017,1.515Zm10.764-50.286c10.426,0,15.474-8.918,15.474-19.681,0-8.072-4.538-10.93-10.929-10.93h-4.208c-1.006,0-1.846.338-2.183,2.018l-4.882,23.545a18.05819,18.05819,0,0,0-.669,3.533c0,1.178.669,1.515,2.018,1.515Z"/><path class="cls-4" d="M600.52692,908.11644c0-21.19,10.592-54.825,46.251-54.825,25.391,0,37.167,13.959,37.167,35.15,0,22.533-9.924,54.487-46.588,54.487-22.871,0-36.83-13.119-36.83-34.812m57.18-19.847c0-10.592-2.693-17.155-10.929-17.155-12.954,0-20.185,22.203-20.185,37.339,0,10.261,3.03,16.652,10.764,16.652,12.782,0,20.35-19.681,20.35-36.836"/><path class="cls-4" d="M688.99249,938.89294a34.37628,34.37628,0,0,1,.84-4.373l22.877-107.638c.503-2.018,1.343-3.023,3.196-3.023h20.012c1.51495,0,2.521.668,2.521,2.017a25.16572,25.16572,0,0,1-.675,3.699l-23.036,108.649c-.509,2.184-1.349,3.361-3.704,3.361h-18.836c-2.017,0-3.195-.84-3.195-2.692"/><path class="cls-4" d="M733.5567,939.23015a32.11028,32.11028,0,0,1,1.012-5.048l16.314-76.524c.331-1.508,1.006-3.023,3.361-3.023h20.013c1.68,0,2.189.84,2.189,1.852a36.38718,36.38718,0,0,1-1.012,5.544l-16.142,76.524c-.509,2.018-1.515,3.03-3.368,3.03h-20.012c-1.681,0-2.355-.674-2.355-2.355m20.687-106.963c0-7.231,5.551-13.291,15.977-13.291,8.58,0,13.794,3.705,13.794,11.439,0,7.74-5.888,13.284-16.149,13.284-7.906,0-13.622-3.361-13.622-11.432"/><path class="cls-4" d="M792.08557,937.54974c-.337-3.698-5.213-79.217-5.213-80.057,0-2.018.84-2.858,3.03-2.858h20.178c2.018,0,3.03.84,3.03,2.693l.84,59.872c0,1.343.503,1.846,1.343,1.846s1.349-.331,2.018-2.183l24.723-60.21c.674-1.515,1.349-2.018,3.533-2.018h17.491c1.515,0,2.018.675,2.018,1.681a9.6854,9.6854,0,0,1-1.177,3.367l-35.99,77.53c-1.68,3.698-4.036,5.047-7.568,5.047h-22.871c-3.87,0-5.048-1.515-5.385-4.71"/><path class="cls-4" d="M858.34906,939.23015a32.11028,32.11028,0,0,1,1.012-5.048l16.314-76.524c.331-1.508,1.006-3.023,3.361-3.023h20.013c1.68,0,2.189.84,2.189,1.852a36.38844,36.38844,0,0,1-1.012,5.544l-16.142,76.524c-.509,2.018-1.515,3.03-3.368,3.03H860.704c-1.681,0-2.355-.674-2.355-2.355m20.687-106.963c0-7.231,5.551-13.291,15.977-13.291,8.58,0,13.794,3.705,13.794,11.439,0,7.74-5.888,13.284-16.149,13.284-7.906,0-13.62195-3.361-13.62195-11.432"/><path class="cls-4" d="M905.94812,909.79724c0-26.066,14.46295-56.506,43.221-56.506,10.764,0,14.634,5.042,17.327,5.042,1.343,0,1.846-.675,2.183-2.018s1.012-1.68,2.355-1.68h20.516c1.51495,0,2.189.503,2.189,1.68a19.00361,19.00361,0,0,1-.503,3.533l-16.989,79.216c-.337,1.846-1.51495,2.521-3.361,2.521h-20.184c-1.012,0-1.515-.337-1.515-1.177l.172-1.681c0-.675-.33795-1.012-1.178-1.012-2.527,0-6.059,5.213-17.154,5.213-16.486,0-27.079-11.432-27.079-33.131m49.612,5.722,6.894-32.126a23.42884,23.42884,0,0,0,1.012-6.391c0-4.207-3.699-6.053-8.581-6.053-14.799,0-22.87,20.178-22.87,38.51,0,10.764,4.207,15.812,11.775,15.812,6.391,0,10.255-2.355,11.77-9.752"/><path class="cls-4" d="M995.08252,939.23024a21.03274,21.03274,0,0,1,.66894-3.533l16.823-78.039c.33106-2.183,1.509-3.023,3.195-3.023h19.51c1.343,0,2.349.337,2.349,1.515,0,.668-.33093,1.177-.33093,1.846,0,1.012.668,1.177,1.67993,1.177,3.53308,0,11.102-5.881,23.04309-5.881,11.604,0,20.515,6.39,20.515,19.84a87.83658,87.83658,0,0,1-2.01709,16.652l-10.427,48.771a3.46541,3.46541,0,0,1-3.533,3.03h-19.172c-2.355,0-3.03-1.012-3.03-2.183a21.75883,21.75883,0,0,1,.675-4.208l9.249-44.067a49.6331,49.6331,0,0,0,1.51489-10.254c0-5.551-2.521-9.084-9.2489-9.084-7.74,0-12.78211,5.379-14.8,15.137l-10.935,51.629c-.33795,1.687-1.178,3.03-3.361,3.03h-19.007c-1.852,0-3.361-.337-3.361-2.355"/><path class="cls-4" d="M1090.7793,909.79724c0-26.066,14.462-56.506,43.22-56.506,10.764,0,14.634,5.042,17.327,5.042,1.343,0,1.84607-.675,2.183-2.018s1.01208-1.68,2.3551-1.68h20.516c1.51489,0,2.189.503,2.189,1.68a19.0052,19.0052,0,0,1-.50306,3.533l-16.989,79.216c-.33691,1.846-1.51489,2.521-3.361,2.521h-20.184c-1.01209,0-1.515-.337-1.515-1.177l.172-1.681c0-.675-.338-1.012-1.178-1.012-2.527,0-6.05908,5.213-17.15405,5.213-16.486,0-27.078-11.432-27.078-33.131m49.61108,5.722,6.89392-32.126a23.42643,23.42643,0,0,0,1.012-6.391c0-4.207-3.699-6.053-8.58093-6.053-14.79907,0-22.87,20.178-22.87,38.51,0,10.764,4.207,15.812,11.775,15.812,6.391,0,10.255-2.355,11.77-9.752"/><path class="cls-4" d="M1222.9679,896.17514c0-30.439,18.5039-69.121,64.7539-69.121,10.261,0,18.67,1.68,23.88306,4.201,3.02392,1.515,3.361,2.692,3.361,4.207,0,1.344-2.183,10.93-3.361,15.303-.337,1.515-1.012,2.858-3.03,2.858-2.52,0-9.249-6.391-21.18994-6.391-26.40308,0-36.66406,27.415-36.66406,48.943,0,19.847,10.261,27.244,23.717,27.244,12.10693,0,18.49792-6.722,21.527-6.722a2.06563,2.06563,0,0,1,2.184,2.349c0,1.349-2.184,11.101-3.19592,15.136-.84009,3.196-2.01709,4.711-6.89307,6.563a53.08179,53.08179,0,0,1-16.989,3.024c-30.27392,0-48.1029-15.806-48.1029-47.594"/><path class="cls-4" d="M1306.72327,939.23015a32.10319,32.10319,0,0,1,1.012-5.048l16.314-76.524c.33106-1.508,1.006-3.023,3.36109-3.023h20.01294c1.68005,0,2.189.84,2.189,1.852a36.38633,36.38633,0,0,1-1.012,5.544l-16.142,76.524c-.509,2.018-1.515,3.03-3.36706,3.03h-20.01294c-1.681,0-2.355-.674-2.355-2.355m20.687-106.963c0-7.231,5.5509-13.291,15.97693-13.291,8.57995,0,13.79406,3.705,13.79406,11.439,0,7.74-5.88806,13.284-16.149,13.284-7.906,0-13.62195-3.361-13.62195-11.432"/><path class="cls-4" d="M1354.32227,909.79724c0-26.066,14.463-56.506,43.22094-56.506,10.764,0,14.634,5.042,17.326,5.042,1.344,0,1.84705-.675,2.184-2.018s1.01209-1.68,2.35511-1.68h20.516c1.51489,0,2.189.503,2.189,1.68a19.00584,19.00584,0,0,1-.50305,3.533l-16.989,79.216c-.33692,1.846-1.5149,2.521-3.361,2.521h-20.184c-1.01208,0-1.515-.337-1.515-1.177l.172-1.681c0-.675-.338-1.012-1.178-1.012-2.527,0-6.05908,5.213-17.15405,5.213-16.48694,0-27.079-11.432-27.079-33.131m49.61206,5.722,6.89392-32.126a23.42643,23.42643,0,0,0,1.012-6.391c0-4.207-3.699-6.053-8.58093-6.053-14.79907,0-22.87,20.178-22.87,38.51,0,10.764,4.207,15.812,11.775,15.812,6.391,0,10.255-2.355,11.77-9.752"/><path class="cls-4" d="M1447.16113,906.60164c0-26.906,14.971-53.31,49.10889-53.31,8.91711,0,16.989,1.681,21.19006,3.698,1.852,1.006,2.692,1.847,2.692,3.196,0,1.846-1.515,8.237-2.858,13.284-.50305,2.018-1.343,2.858-2.858,2.858-3.195,0-7.231-5.378-16.817-5.378-16.823,0-24.392,19-24.392,35.149,0,11.604,4.71,19.007,15.977,19.007,10.095,0,14.297-6.06,17.66394-6.06,1.177,0,2.01807.509,2.01807,1.852,0,1.178-1.01209,5.888-2.859,13.622-1.01209,3.87-2.692,4.711-5.72205,5.888a43.9297,43.9297,0,0,1-15.137,2.521c-22.87,0-38.007-10.592-38.007-36.327"/><path class="cls-4" d="M1517.79724,939.06464a41.3148,41.3148,0,0,1,.84-4.207l16.486-77.199c.50305-2.183,1.344-3.024,3.024-3.024h20.01294c1.349,0,1.85205.503,1.85205,1.515,0,.669-.337,1.681-.337,2.521,0,.675.502,1.012,1.177,1.012,2.693,0,8.746-6.391,17.829-6.391,4.876,0,5.88806,2.018,5.88806,4.036,0,1.509-1.686,8.071-3.532,15.468a3.20362,3.20362,0,0,1-3.196,2.527c-2.018,0-3.704-1.35-8.40906-1.35-8.58,0-13.28992,4.545-15.308,14.131l-10.76392,50.452c-.50305,2.018-1.343,3.03-3.698,3.03h-18.498c-2.355,0-3.36694-.675-3.36694-2.521"/><path class="cls-4" d="M1582.20825,923.59064a87.588,87.588,0,0,1,2.183-17.155l10.433-48.777c.50293-2.183,1.509-3.024,3.527-3.024h19.006c2.356,0,3.03,1.006,3.03,2.355a26.50229,26.50229,0,0,1-.67408,4.202l-9.42089,44.232c-1.00611,4.711-1.681,7.906-1.681,11.102,0,5.047,2.527,8.408,8.918,8.408,8.23707,0,13.113-4.538,15.137-14.296l11.26611-52.979c.50293-1.68,1.344-3.024,3.533-3.024h19.338c2.01795,0,2.858.503,2.858,2.018a22.10147,22.10147,0,0,1-.66809,4.036l-16.486,77.867c-.50305,2.355-1.509,3.03-3.196,3.03h-19.841c-1.177,0-2.189-.166-2.189-1.343l.16589-1.687c0-.84-.66894-1.178-1.6809-1.178-3.19507,0-10.261,5.551-23.042,5.551-13.285,0-20.516-6.722-20.516-19.338"/><path class="cls-4" d="M1665.79773,939.23024a73.01935,73.01935,0,0,1,2.01794-9.752,14.7367,14.7367,0,0,1,3.367-6.059l37.67-48.097c1.012-1.178,1.349-1.852,1.349-2.527a.969.969,0,0,0-1.012-1.006h-24.557c-1.68,0-2.183-.674-2.183-1.852,0-1.515,1.515-7.397,2.52-12.279.50891-2.349,1.6809-3.023,3.533-3.023h54.494c1.515,0,2.355.503,2.355,1.68a81.97592,81.97592,0,0,1-1.852,9.421,13.81718,13.81718,0,0,1-3.19592,6.219l-37.842,48.268c-1.343,1.687-2.01794,2.527-2.01794,3.196,0,.846.50293,1.012,1.51489,1.012h26.576c1.84595,0,2.52.84,2.52,2.017,0,.841-1.852,8.409-2.692,12.107-.50305,2.19-1.681,3.03-3.533,3.03h-56.17407c-2.183,0-2.85791-1.012-2.85791-2.355"/><path class="cls-4" d="M1000.48431,629.00864c-9.91705,35.752-11.80505,42.557-20.468,79.089l-4.35,4.052H858.4093c-19.857,0-93.043.704-108.595,1.369l-3.096-4.045,16.148-72.368c5.039-22.334,9.29-44.568,13.663-66.909l35.423-171.091c5.505-28.359,11.71405-56.786,17.295-85.106,1.874-10.896,11.148-63.637,13.648-75.756l3.724-3.341c45.309,0,56.487,0,104.23505-2.064l3.082,4.06006c-.596,1.345-.596,2.676-1.223,4.717-9.955,39.239-23.56494,102.776-32.274,141.992l-24.161,110.865c-4.35,21.607-9.266,43.245-13.655,64.913-8.701,40.531-9.955,46.586-14.26,67.559,32.847,0,104.818,0,129.651-1.996Z"/><path class="cls-4" d="M1374.95264,411.76447c15.52807-21.125,25.415-50.302,25.415-81.527,0-17.234-3.135-44.905-27.273-67.208-31.6471-30.522-78.78308-30.522-131.524-29.719l-60.77,1.346h-41.578l-4.28894,4.006c-10.636,78.729-37.90809,205.506-54.01807,281.895l-19.23694,89.946c-4.328,22.25-12.386,59.523-21.745,99.373l2.531,3.38c20.4679-.65,30.385-.65,50.27893-1.369h36.52405c94.335,0,142.703-.68,185.558-32.449,50.187-37.189,57.657-100.719,57.657-127.097,0-40.569-16.163-63.537-35.385-79.066a105.68062,105.68062,0,0,0-21.714-13.541,30.82728,30.82728,0,0,1-7.432-2.699c3.08105-.749,6.193-1.307,8.663-2.676,24.833-9.526,44.69007-24.397,58.338-42.595m-134.682,206.117c-16.668,21.011-39.00891,21.011-56.35791,21.011h-27.915l27.265-133.887h27.31091c19.16809.712,50.25708,1.415,50.25708,44.568,0,19.627-6.80506,51.396-20.56006,68.308m32.9231-208.877c-15.514,19.665-34.7201,20.361-48.957,20.361l-24.864-.696,26.699-124.375,29.154-.749c8.71594,0,38.474,0,38.474,39.911,0,18.266-6.843,47.986-20.506,65.548"/><path class="cls-4" d="M1685.72156,607.127c-24.10706,18.36506-54.19409,20.361-68.66,20.361-62.62,0-87.92-45.967-87.92-107.631,0-77.475,39.155-198.876,125.882-198.876,24.665,0,44.59009,8.571,63.21606,26.309l5.444-2.026c8.991-36.004,10.84107-42.595,21.668-79.333l-1.88892-4.565a193.81859,193.81859,0,0,0-100.458-28.267c-28.986,0-119.28406,7.241-176.51306,121.416-26.53895,52.459-39.71192,116.134-39.71192,171.199,0,110.903,53.61194,187.729,161.38892,187.729,13.83105,0,49.988-1.942,69.86-9.794,2.431-1.293,4.16712-1.996,6.651-3.357l4.81006-5.857c9.05994-39.988,9.588-43.895,20.445-84.632Z"/></g></g></svg>